# xmcd
#
# Track frame offsets:
#	150
#	14637
#	35802
#	48015
#	62502
#	79142
#	95475
#	110727
#	124620
#	144100
#	157040
#	173137
#	190405
#	201207
#	219655
#	236865
#	253152
#	270370
#
# Disc length: 3773 seconds
#
# Revision: 1
# Processed by: cddbd v1.5.2PL0 Copyright (c) Steve Scherf et al.
# Submitted via: audiograbber 1.83.01
#
DISCID=050ebb12
DTITLE=Reba McEntire - THM-PL33
DYEAR=1900
DGENRE=Country
TTITLE0=Little Rock
TTITLE1=Fancy 
TTITLE2=Can't Even Get The Blues
TTITLE3=Cathy's Clown
TTITLE4=Only In My Mind
TTITLE5=Somebody Should Leave
TTITLE6=Walk On
TTITLE7=The Gretest Man I Ever Knew 
TTITLE8=The Night The Lights Went Out In Georgia
TTITLE9=I'm Not That Lonely Yet
TTITLE10=Little Girl 
TTITLE11=New Fool At An Old Game
TTITLE12=Pins And Needles 
TTITLE13=She Thinks His Name Was John
TTITLE14=The Heart Is A Lonely Hunter
TTITLE15=Til Love Comes Again  
TTITLE16=Till You Love Me
TTITLE17=Why Do We Want (what we know we can't have)
EXTD=
EXTT0=
EXTT1=
EXTT2=
EXTT3=
EXTT4=
EXTT5=
EXTT6=
EXTT7=
EXTT8=
EXTT9=
EXTT10=
EXTT11=
EXTT12=
EXTT13=
EXTT14=
EXTT15=
EXTT16=
EXTT17=
PLAYORDER=
